<?xml version="1.0" encoding="UTF-8" standalone="no"?>
<!-- Created with Inkscape (http://www.inkscape.org/) -->

<svg
   xmlns:dc="http://purl.org/dc/elements/1.1/"
   xmlns:cc="http://creativecommons.org/ns#"
   xmlns:rdf="http://www.w3.org/1999/02/22-rdf-syntax-ns#"
   xmlns:svg="http://www.w3.org/2000/svg"
   xmlns="http://www.w3.org/2000/svg"
   xmlns:sodipodi="http://sodipodi.sourceforge.net/DTD/sodipodi-0.dtd"
   xmlns:inkscape="http://www.inkscape.org/namespaces/inkscape"
   version="1.1"
   id="svg14118"
   xml:space="preserve"
   width="800"
   height="800"
   viewBox="0 0 800 800"
   sodipodi:docname="bottle-color-publicdomainvectors.org.svg"
   inkscape:version="0.92.4 (5da689c313, 2019-01-14)"><metadata
     id="metadata14124"><rdf:RDF><cc:Work
         rdf:about=""><dc:format>image/svg+xml</dc:format><dc:type
           rdf:resource="http://purl.org/dc/dcmitype/StillImage" /><dc:title></dc:title></cc:Work></rdf:RDF></metadata><defs
     id="defs14122"><clipPath
       clipPathUnits="userSpaceOnUse"
       id="clipPath14134"><path
         d="M 0,600 H 600 V 0 H 0 Z"
         id="path14132"
         inkscape:connector-curvature="0" /></clipPath></defs><sodipodi:namedview
     pagecolor="#ffffff"
     bordercolor="#666666"
     borderopacity="1"
     objecttolerance="10"
     gridtolerance="10"
     guidetolerance="10"
     inkscape:pageopacity="0"
     inkscape:pageshadow="2"
     inkscape:window-width="1920"
     inkscape:window-height="1018"
     id="namedview14120"
     showgrid="false"
     inkscape:zoom="1.0013867"
     inkscape:cx="400"
     inkscape:cy="400"
     inkscape:window-x="-8"
     inkscape:window-y="-8"
     inkscape:window-maximized="1"
     inkscape:current-layer="g14126" /><g
     id="g14126"
     inkscape:groupmode="layer"
     inkscape:label="bottle-color-publicdomainvectors.org"
     transform="matrix(1.3333333,0,0,-1.3333333,0,800)"><g
       id="g14128"><g
         id="g14130"
         clip-path="url(#clipPath14134)"><path
           d="m 283.976,515.14 h -3.613 c 0.202,-1.74 0.293,-3.479 0.284,-5.218 l 4.371,-6.347 z"
           style="fill:#00376b;fill-opacity:1;fill-rule:nonzero;stroke:none"
           id="path14136"
           inkscape:connector-curvature="0" /><path
           d="m 273.706,561.854 v -35.305 h 9.243 l -3.609,40.06 h -0.883 c -2.628,0 -4.751,-2.123 -4.751,-4.755"
           style="fill:#00376b;fill-opacity:1;fill-rule:nonzero;stroke:none"
           id="path14138"
           inkscape:connector-curvature="0" /><path
           d="m 342.195,526.549 4.375,11.365 v 23.94 c 0,2.632 -2.123,4.755 -4.756,4.755 h -51.19 l 24.194,-40.06 z"
           style="fill:#005167;fill-opacity:1;fill-rule:nonzero;stroke:none"
           id="path14140"
           inkscape:connector-curvature="0" /><path
           d="m 337.804,515.14 h -16.095 l 9.828,-16.276 z"
           style="fill:#005167;fill-opacity:1;fill-rule:nonzero;stroke:none"
           id="path14142"
           inkscape:connector-curvature="0" /><path
           d="m 331.537,498.864 -9.828,16.276 h -37.733 l 1.042,-11.565 z"
           style="fill:#006573;fill-opacity:1;fill-rule:nonzero;stroke:none"
           id="path14144"
           inkscape:connector-curvature="0" /><path
           d="m 314.818,526.549 -24.194,40.06 H 279.34 l 3.609,-40.06 z"
           style="fill:#006573;fill-opacity:1;fill-rule:nonzero;stroke:none"
           id="path14146"
           inkscape:connector-curvature="0" /><path
           d="m 280.647,509.922 c -0.009,-1.93 -0.144,-3.86 -0.391,-5.791 l 4.762,-0.556 z"
           style="fill:#589363;fill-opacity:1;fill-rule:nonzero;stroke:none"
           id="path14148"
           inkscape:connector-curvature="0" /><path
           d="m 346.57,526.549 v 11.365 l -4.375,-11.365 z"
           style="fill:#005e62;fill-opacity:1;fill-rule:nonzero;stroke:none"
           id="path14150"
           inkscape:connector-curvature="0" /><path
           d="m 340.037,515.14 h -2.233 l -6.267,-16.276 9.606,-0.242 c -1.288,5.511 -1.745,11.014 -1.106,16.518"
           style="fill:#005e62;fill-opacity:1;fill-rule:nonzero;stroke:none"
           id="path14152"
           inkscape:connector-curvature="0" /><path
           d="m 280.256,504.131 c -0.178,-1.393 -0.414,-2.786 -0.706,-4.18 l 5.468,3.624 z"
           style="fill:#6dc46c;fill-opacity:1;fill-rule:nonzero;stroke:none"
           id="path14154"
           inkscape:connector-curvature="0" /><path
           d="m 370.369,445.277 c -4.721,6.811 -9.463,13.579 -13.76,20.319 l -21.734,-15.214 z"
           style="fill:#006f6d;fill-opacity:1;fill-rule:nonzero;stroke:none"
           id="path14156"
           inkscape:connector-curvature="0" /><path
           d="m 334.875,450.382 21.734,15.214 c -7.056,11.069 -12.906,22.06 -15.466,33.026 l -9.606,0.242 z"
           style="fill:#007a70;fill-opacity:1;fill-rule:nonzero;stroke:none"
           id="path14158"
           inkscape:connector-curvature="0" /><path
           d="m 334.875,450.382 -3.338,48.482 -43.182,-45.342 z"
           style="fill:#00927d;fill-opacity:1;fill-rule:nonzero;stroke:none"
           id="path14160"
           inkscape:connector-curvature="0" /><path
           d="m 288.355,453.522 43.182,45.342 -46.519,4.711 z"
           style="fill:#00887d;fill-opacity:1;fill-rule:nonzero;stroke:none"
           id="path14162"
           inkscape:connector-curvature="0" /><path
           d="m 285.018,503.575 -5.468,-3.624 c -2.696,-12.897 -10.061,-25.827 -18.702,-38.874 l 27.507,-7.555 z"
           style="fill:#169981;fill-opacity:1;fill-rule:nonzero;stroke:none"
           id="path14164"
           inkscape:connector-curvature="0" /><path
           d="m 226.954,406.781 c -2.191,-5.102 -3.906,-10.238 -4.962,-15.413 l 22.984,8.371 z"
           style="fill:#dadd01;fill-opacity:1;fill-rule:nonzero;stroke:none"
           id="path14166"
           inkscape:connector-curvature="0" /><path
           d="m 355.484,409.161 25.207,20.818 c -3.298,5.125 -6.802,10.223 -10.322,15.298 l -35.494,5.105 z"
           style="fill:#008578;fill-opacity:1;fill-rule:nonzero;stroke:none"
           id="path14168"
           inkscape:connector-curvature="0" /><path
           d="m 288.355,453.522 -27.507,7.555 c -6.846,-10.336 -14.492,-20.745 -21.254,-31.271 l 5.382,-30.067 z"
           style="fill:#74db7f;fill-opacity:1;fill-rule:nonzero;stroke:none"
           id="path14170"
           inkscape:connector-curvature="0" /><path
           d="m 239.594,429.806 c -4.888,-7.609 -9.313,-15.279 -12.64,-23.025 l 18.022,-7.042 z"
           style="fill:#afda1a;fill-opacity:1;fill-rule:nonzero;stroke:none"
           id="path14172"
           inkscape:connector-curvature="0" /><path
           d="m 355.484,409.161 -20.609,41.221 -46.52,3.14 z"
           style="fill:#009681;fill-opacity:1;fill-rule:nonzero;stroke:none"
           id="path14174"
           inkscape:connector-curvature="0" /><path
           d="m 288.355,453.522 -14.734,-72.343 h 24.705 l 57.158,27.982 z"
           style="fill:#14af8b;fill-opacity:1;fill-rule:nonzero;stroke:none"
           id="path14176"
           inkscape:connector-curvature="0" /><path
           d="m 244.976,399.739 15.03,-18.56 h 13.615 l 14.734,72.343 z"
           style="fill:#67d28e;fill-opacity:1;fill-rule:nonzero;stroke:none"
           id="path14178"
           inkscape:connector-curvature="0" /><path
           d="m 393.836,405.857 c -3.393,8.12 -8.018,16.154 -13.145,24.122 l -25.207,-20.818 z"
           style="fill:#006f73;fill-opacity:1;fill-rule:nonzero;stroke:none"
           id="path14180"
           inkscape:connector-curvature="0" /><path
           d="m 234.308,366.085 h -8.382 v -16.672 l 2.561,-1.689 z"
           style="fill:#dceb1b;fill-opacity:1;fill-rule:nonzero;stroke:none"
           id="path14182"
           inkscape:connector-curvature="0" /><path
           d="m 221.992,391.368 c -0.69,-3.38 -1.101,-6.775 -1.178,-10.189 h 18.278 l 5.884,18.56 z"
           style="fill:#dceb1b;fill-opacity:1;fill-rule:nonzero;stroke:none"
           id="path14184"
           inkscape:connector-curvature="0" /><path
           d="m 348.49,366.085 h -75.312 l 67.388,-48.786 z"
           style="fill:#31b88c;fill-opacity:1;fill-rule:nonzero;stroke:none"
           id="path14186"
           inkscape:connector-curvature="0" /><path
           d="m 298.326,381.179 h 52.615 l 4.543,27.982 z"
           style="fill:#31b88c;fill-opacity:1;fill-rule:nonzero;stroke:none"
           id="path14188"
           inkscape:connector-curvature="0" /><path
           d="m 379.264,381.179 h 20.322 c -0.188,8.324 -2.352,16.544 -5.75,24.678 l -38.352,3.304 z"
           style="fill:#006474;fill-opacity:1;fill-rule:nonzero;stroke:none"
           id="path14190"
           inkscape:connector-curvature="0" /><path
           d="m 394.352,366.085 h -2.263 l 2.263,-2.662 z"
           style="fill:#006474;fill-opacity:1;fill-rule:nonzero;stroke:none"
           id="path14192"
           inkscape:connector-curvature="0" /><path
           d="m 350.941,381.179 h 28.323 l -23.78,27.982 z"
           style="fill:#017c7c;fill-opacity:1;fill-rule:nonzero;stroke:none"
           id="path14194"
           inkscape:connector-curvature="0" /><path
           d="M 392.089,366.085 H 348.49 l -7.924,-48.786 53.786,7.921 v 38.203 z"
           style="fill:#017c7c;fill-opacity:1;fill-rule:nonzero;stroke:none"
           id="path14196"
           inkscape:connector-curvature="0" /><path
           d="m 340.566,317.299 -67.388,48.786 h -1.161 l 37.537,-55.067 z"
           style="fill:#8be67a;fill-opacity:1;fill-rule:nonzero;stroke:none"
           id="path14198"
           inkscape:connector-curvature="0" /><path
           d="m 239.092,381.179 h 20.914 l -15.03,18.56 z"
           style="fill:#b7ee5a;fill-opacity:1;fill-rule:nonzero;stroke:none"
           id="path14200"
           inkscape:connector-curvature="0" /><path
           d="m 267.371,366.085 h -33.063 l -5.821,-18.361 z"
           style="fill:#b7ee5a;fill-opacity:1;fill-rule:nonzero;stroke:none"
           id="path14202"
           inkscape:connector-curvature="0" /><path
           d="M 225.926,349.413 V 347.6 l 2.561,0.124 z"
           style="fill:#f2d500;fill-opacity:1;fill-rule:nonzero;stroke:none"
           id="path14204"
           inkscape:connector-curvature="0" /><path
           d="m 248.313,287.268 22.106,78.817 h -3.048 l -38.884,-18.361 z"
           style="fill:#d8f32f;fill-opacity:1;fill-rule:nonzero;stroke:none"
           id="path14206"
           inkscape:connector-curvature="0" /><path
           d="m 309.554,311.018 -37.537,55.067 h -1.598 l -22.106,-78.817 z"
           style="fill:#c5f060;fill-opacity:1;fill-rule:nonzero;stroke:none"
           id="path14208"
           inkscape:connector-curvature="0" /><path
           d="m 394.352,276.059 v 49.161 l -53.786,-7.921 z"
           style="fill:#6cab63;fill-opacity:1;fill-rule:nonzero;stroke:none"
           id="path14210"
           inkscape:connector-curvature="0" /><path
           d="m 225.926,304.187 v -22.116 l 22.387,5.197 z"
           style="fill:#ffcc00;fill-opacity:1;fill-rule:nonzero;stroke:none"
           id="path14212"
           inkscape:connector-curvature="0" /><path
           d="m 228.487,347.724 -2.561,-0.124 v -43.413 l 22.387,-16.919 z"
           style="fill:#f9e800;fill-opacity:1;fill-rule:nonzero;stroke:none"
           id="path14214"
           inkscape:connector-curvature="0" /><path
           d="m 248.313,287.268 56.922,-6.085 4.319,29.835 z"
           style="fill:#cbee26;fill-opacity:1;fill-rule:nonzero;stroke:none"
           id="path14216"
           inkscape:connector-curvature="0" /><path
           d="m 347.83,270.779 46.522,-0.506 v 5.786 l -53.786,41.24 z"
           style="fill:#8bca42;fill-opacity:1;fill-rule:nonzero;stroke:none"
           id="path14218"
           inkscape:connector-curvature="0" /><path
           d="m 305.235,281.183 35.331,36.116 -31.012,-6.281 z"
           style="fill:#96e541;fill-opacity:1;fill-rule:nonzero;stroke:none"
           id="path14220"
           inkscape:connector-curvature="0" /><path
           d="m 347.83,270.779 -7.264,46.52 -35.331,-36.116 z"
           style="fill:#9add31;fill-opacity:1;fill-rule:nonzero;stroke:none"
           id="path14222"
           inkscape:connector-curvature="0" /><path
           d="m 225.926,282.071 v -27.479 h 13.202 l 9.185,32.676 z"
           style="fill:#ffc900;fill-opacity:1;fill-rule:nonzero;stroke:none"
           id="path14224"
           inkscape:connector-curvature="0" /><path
           d="m 233.816,235.69 h -4.324 c -2.608,0 -6.106,-2.417 -3.69,-7.369 1.123,-2.3 2.145,-4.6 3.079,-6.904 l 0.784,-0.494 z"
           style="fill:#ffc900;fill-opacity:1;fill-rule:nonzero;stroke:none"
           id="path14226"
           inkscape:connector-curvature="0" /><path
           d="m 271.889,254.592 h 32.423 l 0.923,26.591 z"
           style="fill:#f0cb00;fill-opacity:1;fill-rule:nonzero;stroke:none"
           id="path14228"
           inkscape:connector-curvature="0" /><path
           d="m 302.487,202.079 1.167,33.611 h -55.469 l -18.52,-14.767 z"
           style="fill:#f0cb00;fill-opacity:1;fill-rule:nonzero;stroke:none"
           id="path14230"
           inkscape:connector-curvature="0" /><path
           d="m 248.185,235.69 h -14.369 l -4.151,-14.767 z"
           style="fill:#f6e100;fill-opacity:1;fill-rule:nonzero;stroke:none"
           id="path14232"
           inkscape:connector-curvature="0" /><path
           d="m 248.313,287.268 -9.185,-32.676 h 32.761 l 33.346,26.591 z"
           style="fill:#f6e100;fill-opacity:1;fill-rule:nonzero;stroke:none"
           id="path14234"
           inkscape:connector-curvature="0" /><path
           d="m 305.235,281.183 -0.923,-26.591 h 32.834 l 10.684,16.187 z"
           style="fill:#c7da0e;fill-opacity:1;fill-rule:nonzero;stroke:none"
           id="path14236"
           inkscape:connector-curvature="0" /><path
           d="m 324.671,235.69 h -21.017 l -1.167,-33.611 z"
           style="fill:#c7da0e;fill-opacity:1;fill-rule:nonzero;stroke:none"
           id="path14238"
           inkscape:connector-curvature="0" /><path
           d="m 228.881,221.417 c 0.111,-0.273 0.221,-0.547 0.329,-0.82 l 0.455,0.326 z"
           style="fill:#fead00;fill-opacity:1;fill-rule:nonzero;stroke:none"
           id="path14240"
           inkscape:connector-curvature="0" /><path
           d="m 394.594,228.321 c 2.416,4.952 -1.078,7.369 -3.686,7.369 H 371.086 L 387.8,210.474 c 1.686,5.99 3.899,11.92 6.794,17.847"
           style="fill:#b5b434;fill-opacity:1;fill-rule:nonzero;stroke:none"
           id="path14242"
           inkscape:connector-curvature="0" /><path
           d="m 358.559,254.592 h 35.793 v 15.681 l -46.522,0.506 z"
           style="fill:#b5b434;fill-opacity:1;fill-rule:nonzero;stroke:none"
           id="path14244"
           inkscape:connector-curvature="0" /><path
           d="m 385.55,200.922 c 0.616,3.207 1.36,6.389 2.25,9.552 l -16.714,25.216 h -24.577 l -1.82,-48.333 z"
           style="fill:#c2ad05;fill-opacity:1;fill-rule:nonzero;stroke:none"
           id="path14246"
           inkscape:connector-curvature="0" /><path
           d="m 347.221,254.592 h 11.338 l -10.729,16.187 z"
           style="fill:#c2ad05;fill-opacity:1;fill-rule:nonzero;stroke:none"
           id="path14248"
           inkscape:connector-curvature="0" /><path
           d="m 337.146,254.592 h 10.075 l 0.609,16.187 z"
           style="fill:#d3ba00;fill-opacity:1;fill-rule:nonzero;stroke:none"
           id="path14250"
           inkscape:connector-curvature="0" /><path
           d="m 344.689,187.357 1.82,48.333 h -21.838 l -22.184,-33.611 z"
           style="fill:#d3ba00;fill-opacity:1;fill-rule:nonzero;stroke:none"
           id="path14252"
           inkscape:connector-curvature="0" /><path
           d="m 229.665,220.923 -0.008,-1.471 c 6.328,-16.528 8.09,-33.297 7.915,-51.634 -0.037,-3.802 -0.465,-8.326 -1.12,-13.363 l 66.035,47.624 z"
           style="fill:#fb9600;fill-opacity:1;fill-rule:nonzero;stroke:none"
           id="path14254"
           inkscape:connector-curvature="0" /><path
           d="m 229.21,220.597 c 0.151,-0.382 0.301,-0.763 0.447,-1.145 l 0.008,1.471 z"
           style="fill:#ff9e00;fill-opacity:1;fill-rule:nonzero;stroke:none"
           id="path14256"
           inkscape:connector-curvature="0" /><path
           d="m 302.487,202.079 -66.035,-47.624 c -0.316,-2.427 -0.684,-4.974 -1.088,-7.617 l 63.001,-25.236 z"
           style="fill:#f56000;fill-opacity:1;fill-rule:nonzero;stroke:none"
           id="path14258"
           inkscape:connector-curvature="0" /><path
           d="m 383.205,160.998 c -0.247,2.428 -0.383,4.71 -0.377,6.82 0.033,11.548 0.682,22.471 2.722,33.104 l -40.861,-13.565 z"
           style="fill:#bc4b00;fill-opacity:1;fill-rule:nonzero;stroke:none"
           id="path14260"
           inkscape:connector-curvature="0" /><path
           d="m 302.487,202.079 -4.122,-80.477 46.324,65.755 z"
           style="fill:#e06b00;fill-opacity:1;fill-rule:nonzero;stroke:none"
           id="path14262"
           inkscape:connector-curvature="0" /><path
           d="m 360.98,124.546 26.161,13.68 c -1.736,8.335 -3.257,16.103 -3.936,22.772 l -38.516,26.359 z"
           style="fill:#c22700;fill-opacity:1;fill-rule:nonzero;stroke:none"
           id="path14264"
           inkscape:connector-curvature="0" /><path
           d="m 344.689,187.357 -46.324,-65.755 62.615,2.944 z"
           style="fill:#d53d00;fill-opacity:1;fill-rule:nonzero;stroke:none"
           id="path14266"
           inkscape:connector-curvature="0" /><path
           d="m 235.364,146.838 c -2.785,-18.232 -7.236,-41.062 -7.441,-60.991 l 70.442,35.755 z"
           style="fill:#fc5e00;fill-opacity:1;fill-rule:nonzero;stroke:none"
           id="path14268"
           inkscape:connector-curvature="0" /><path
           d="m 373.739,69.979 17.933,45.944 c -1.404,7.624 -3.045,15.17 -4.531,22.303 l -26.161,-13.68 z"
           style="fill:#be0000;fill-opacity:1;fill-rule:nonzero;stroke:none"
           id="path14270"
           inkscape:connector-curvature="0" /><path
           d="m 393.137,67.517 c 3.607,14.043 1.664,31.417 -1.465,48.406 L 373.739,69.979 Z"
           style="fill:#b00000;fill-opacity:1;fill-rule:nonzero;stroke:none"
           id="path14272"
           inkscape:connector-curvature="0" /><path
           d="M 298.365,121.602 227.923,85.847 c -0.013,-1.251 -0.009,-2.49 0.013,-3.715 l 81.421,-0.181 z"
           style="fill:#f23200;fill-opacity:1;fill-rule:nonzero;stroke:none"
           id="path14274"
           inkscape:connector-curvature="0" /><path
           d="m 298.365,121.602 10.992,-39.651 51.623,42.595 z"
           style="fill:#db2a00;fill-opacity:1;fill-rule:nonzero;stroke:none"
           id="path14276"
           inkscape:connector-curvature="0" /><path
           d="M 309.357,81.951 373.739,69.979 360.98,124.546 Z"
           style="fill:#ca1000;fill-opacity:1;fill-rule:nonzero;stroke:none"
           id="path14278"
           inkscape:connector-curvature="0" /><path
           d="m 309.357,81.951 18.297,-31.879 c 2.415,3.252 4.255,5.971 6.555,5.898 4.17,-0.136 8.062,-11.748 17.528,-15.728 l 22.002,29.737 z"
           style="fill:#c80600;fill-opacity:1;fill-rule:nonzero;stroke:none"
           id="path14280"
           inkscape:connector-curvature="0" /><path
           d="m 249.562,40.887 c 2.375,-0.736 4.987,-1.227 7.859,-1.444 18.583,-1.401 23.236,16.346 28.766,16.527 4.944,0.157 7.756,-12.583 18.723,-15.797 l 4.447,41.778 z"
           style="fill:#e21700;fill-opacity:1;fill-rule:nonzero;stroke:none"
           id="path14282"
           inkscape:connector-curvature="0" /><path
           d="m 227.936,82.132 c 0.357,-19.869 5.492,-36.248 21.626,-41.245 l 59.795,41.064 z"
           style="fill:#f24100;fill-opacity:1;fill-rule:nonzero;stroke:none"
           id="path14284"
           inkscape:connector-curvature="0" /><path
           d="m 387.986,55.426 c 2.35,3.628 4.022,7.696 5.151,12.091 l -19.398,2.462 z"
           style="fill:#aa0000;fill-opacity:1;fill-rule:nonzero;stroke:none"
           id="path14286"
           inkscape:connector-curvature="0" /><path
           d="m 304.91,40.173 c 1.584,-0.464 3.336,-0.731 5.291,-0.73 9.184,0.006 13.93,5.885 17.453,10.629 l -18.297,31.879 z"
           style="fill:#cf0e00;fill-opacity:1;fill-rule:nonzero;stroke:none"
           id="path14288"
           inkscape:connector-curvature="0" /><path
           d="M 373.739,69.979 351.737,40.242 c 3.086,-1.298 6.763,-1.786 11.237,-0.799 12.153,2.682 20.077,8.363 25.012,15.983 z"
           style="fill:#b40000;fill-opacity:1;fill-rule:nonzero;stroke:none"
           id="path14290"
           inkscape:connector-curvature="0" /></g></g></g></svg>