<?xml version="1.0" encoding="utf-8"?>

<!DOCTYPE svg PUBLIC "-//W3C//DTD SVG 1.1//EN" "http://www.w3.org/Graphics/SVG/1.1/DTD/svg11.dtd">
<svg version="1.1" id="Layer_1" xmlns="http://www.w3.org/2000/svg" xmlns:xlink="http://www.w3.org/1999/xlink" x="0px" y="0px"
	 viewBox="0 0 1205.354 1709.334" enable-background="new 0 0 1205.354 1709.334" xml:space="preserve">
<g>
	<path fill="#ACACAC" stroke="#ACACAC" stroke-width="0.8341" d="M584.145,75.167c24.531-6.448,48.712-14.163,73.352-20.152
		c2.944-0.676,6.256-0.484,8.8,1.276c2.878,2.127,3.987,5.689,5.205,8.892c1.727,5.113,4.788,9.601,7.449,14.247
		c3.295,5.68,7.874,10.435,12.32,15.214c5.755,6.189,11.627,12.328,18.309,17.541c9.734,7.599,21.345,12.236,32.914,16.248
		c16.123,5.455,32.388,10.526,48.979,14.388c20.953,4.88,41.672,10.685,62.483,16.132c12.57,3.62,25.841,6.948,36.117,15.506
		c4.246,3.595,8.433,7.974,9.684,13.571c0.709,2.778-1.31,5.13-2.652,7.332c-9.542,14.363-19.335,28.568-29.319,42.615
		c-0.217-0.5-0.642-1.501-0.859-2.002c8.625-13.412,17.975-26.358,26.675-39.72c-5.68,1.785-11.402,3.428-17.033,5.355
		c-4.154,1.518-8.483,2.502-12.862,2.994c-1.001-0.375-1.993-0.759-2.969-1.151c4.896-1.376,9.976-2.06,14.772-3.82
		c4.779-1.76,9.742-2.969,14.572-4.596c2.694-0.993,5.589-2.052,7.474-4.354c0.634-3.912-1.977-7.365-4.329-10.21
		c-7.457-8.5-18.25-12.92-28.802-16.19c-16.057-4.888-32.414-8.666-48.562-13.196c-16.991-4.521-34.282-7.932-51.081-13.179
		c-14.464-4.588-29.169-8.775-42.848-15.448c-11.527-5.597-21.136-14.347-29.711-23.714c-5.497-5.939-11.369-11.678-15.464-18.726
		c-2.677-4.671-5.689-9.225-7.39-14.372c-1.251-3.311-2.536-7.49-6.373-8.541c-4.429-1.018-8.75,1.143-12.995,2.102
		c-17.108,4.204-33.915,9.492-50.881,14.172c-31.955,9.15-64.86,14.564-96.64,24.364c-18.125,5.564-35.341,13.629-52.44,21.745
		c-14.088,6.648-27.901,14.03-42.631,19.185c-10.018,3.553-20.811,4.396-30.637,8.55c-11.794,4.913-22.112,12.62-32.313,20.185
		c-24.348,18.517-47.486,38.561-70.315,58.905c-13.304,11.994-27.1,23.48-39.37,36.559c-11.719,12.453-20.928,28.059-23.138,45.225
		c-1.343,14.614,4.513,28.927,12.737,40.73c13.196,19.251,29.553,36.042,45.326,53.158c18.234,20.01,38.386,38.578,61.691,52.541
		c5.989,3.62,12.203,6.856,18.359,10.184c-0.609,0.475-1.209,0.968-1.802,1.46c-3.795-1.969-7.549-4.02-11.294-6.081
		c-23.472-13.029-44.066-30.67-62.441-50.13c-15.031-16.14-30.32-32.097-44.008-49.413c-7.382-9.717-14.714-19.877-18.284-31.705
		c-3.295-9.943-3.528-20.853-0.467-30.887c3.712-12.003,10.001-23.188,18.25-32.655c11.294-12.895,24.398-23.997,37.16-35.375
		c24.256-21.704,48.77-43.19,74.636-62.975c10.627-7.941,21.337-16.082,33.581-21.403c9.943-4.437,20.961-5.263,31.204-8.783
		c11.235-3.812,21.845-9.217,32.547-14.28c16.64-8.032,33.273-16.165,50.597-22.629C520.177,88.729,552.558,83.299,584.145,75.167z"
		/>
	<path fill="#FFFFFF" stroke="#FFFFFF" stroke-width="0.8341" d="M649.998,59.21c4.246-0.959,8.566-3.12,12.995-2.102
		c3.837,1.051,5.121,5.23,6.373,8.541c1.702,5.146,4.713,9.701,7.39,14.372c4.096,7.048,9.968,12.787,15.464,18.726
		c8.575,9.367,18.184,18.117,29.711,23.714c13.679,6.673,28.385,10.86,42.848,15.448c16.799,5.247,34.09,8.658,51.081,13.179
		c16.148,4.529,32.505,8.308,48.562,13.196c10.552,3.27,21.345,7.69,28.802,16.19c2.352,2.844,4.963,6.298,4.329,10.21
		c-1.885,2.302-4.779,3.361-7.474,4.354c-4.83,1.627-9.792,2.836-14.572,4.596c-4.796,1.76-9.876,2.444-14.772,3.82
		c-4.154,0.676-7.207,3.662-9.392,7.065c-38.286,49.279-76.738,98.425-115.065,147.662c-20.869,26.667-41.464,53.542-62.792,79.841
		c-12.161,15.248-24.731,30.353-34.224,47.469c-4.946,8.741-6.998,18.659-10.451,28.001c-5.63,15.339-10.126,31.062-15.097,46.618
		c-5.163,0.5-10.326-0.259-15.481-0.5c-9.008-0.525-17.958-1.718-26.883-3.053c2.969-7.182,6.573-14.272,7.465-22.096
		c0.576-5.138,1.134-10.376,3.286-15.139c2.778-6.748,7.699-12.22,12.195-17.85c4.971-6.206,10.251-12.278,13.938-19.376
		c2.594-4.996,3.186-10.693,3.854-16.198c0.792-8.575,0.759-17.258-0.592-25.774c1.627-4.179,0.459-8.725,0.884-13.07
		c1.034-19.376,5.447-38.352,8.516-57.453c8.141-42.598,16.248-85.204,24.523-127.777c-0.609-0.2-1.209-0.409-1.802-0.609
		c-2.628,10.835-4.229,21.912-6.473,32.847c-7.624,40.212-15.765,80.333-22.696,120.671c-1.593,9.559-3.145,19.134-3.887,28.802
		c-0.534,4.079-0.359,8.191-0.45,12.295c-1.96-0.158-4.337-1.285-5.822,0.567c-4.154,4.095-6.923,9.325-9.968,14.247
		c-14.655,25.015-27.401,51.073-40.763,76.78c-3.637,7.24-7.39,14.422-11.01,21.67c-5.438-2.361-11.127-4.087-16.607-6.331
		c-11.786-4.646-23.413-9.717-34.891-15.072c1.935-7.791,5.146-15.206,7.265-22.955c0.067-0.242,0.2-0.734,0.267-0.976
		c11.869-34.465,22.838-69.248,34.14-103.905c4.404-14.188,10.043-28.018,13.254-42.556c3.779-14.555,10.443-28.126,16.582-41.789
		c26.141-55.96,53.934-111.12,81.334-166.472c5.539-11.319,11.411-22.488,16.757-33.89c-0.375-0.225-1.109-0.676-1.485-0.901
		c-1.877,2.703-3.103,5.764-4.588,8.683c-30.003,60.715-60.565,121.171-89.533,182.395c-6.281,13.646-12.82,27.209-17.975,41.33
		c-3.253,8.633-4.546,17.825-7.59,26.516c-5.063,14.689-9.784,29.477-14.614,44.241c-1.827-4.955-1.81-10.301-2.144-15.498
		c0.242-15.239,2.127-30.854-1.952-45.784c-3.311-12.929-7.741-25.941-16.007-36.609c-8.533-10.627-18.584-20.152-30.186-27.359
		c-10.551-6.581-22.513-10.643-34.707-12.887c-19.535-3.837-39.428-5.405-59.28-6.481c-9.834-0.225-19.877-0.509-29.436,2.194
		c-2.719,0.792-5.647,2.11-6.965,4.779c-0.726,1.86,0.742,3.612,1.868,4.946c4.938,5.238,11.26,8.85,17.166,12.87
		c9.058,5.655,17.683,11.986,26.983,17.241c12.52,7.19,25.082,14.505,35.975,24.056c21.278,18.467,41.288,38.736,57.07,62.183
		c5.18,8.258,10.351,17.099,11.219,27.017c0.175,12.487-10.652,22.237-9.759,34.857c0.884,13.146,6.106,25.457,11.019,37.518
		c0.492,1.084,0.534,2.269,0.15,3.403c-3.42-3.42-6.039-7.515-9.025-11.286c-2.919-4.037-6.189-7.849-8.658-12.178
		c-1.969-3.336-1.001-8.141-4.446-10.577c-6.214-4.504-13.488-7.207-20.394-10.451c-7.207-3.036-14.363-6.539-22.096-7.999
		c0.45,1.143,1.059,2.235,2.077,2.978c9.601,7.607,20.436,13.855,28.668,23.055c5.922,7.207,3.82,17.041,4.379,25.599
		c0.367,7.34,6.573,12.336,11.969,16.44c2.194,1.91,5.472,2.828,6.773,5.614c-24.314-11.402-48.07-24.156-73.393-33.231
		c-6.172-2.269-12.67-3.595-18.634-6.423c-14.539-6.706-29.119-13.354-43.357-20.686c-6.156-3.328-12.37-6.564-18.359-10.184
		c-23.305-13.963-43.457-32.53-61.691-52.541c-15.773-17.116-32.13-33.907-45.326-53.158c-8.224-11.803-14.08-26.116-12.737-40.73
		c2.21-17.166,11.419-32.772,23.138-45.225c12.27-13.079,26.066-24.565,39.37-36.559c22.83-20.344,45.968-40.388,70.315-58.905
		c10.201-7.565,20.519-15.273,32.313-20.185c9.826-4.154,20.619-4.996,30.637-8.55c14.73-5.155,28.543-12.537,42.631-19.185
		c17.099-8.116,34.315-16.182,52.44-21.745c31.78-9.801,64.685-15.214,96.64-24.364C616.083,68.702,632.891,63.414,649.998,59.21
		 M564.127,96.069c0.025,2.152,1.476,3.862,2.461,5.664c8.107,13.588,15.89,27.759,19.21,43.382
		c3.587,15.948,3.286,32.705-0.667,48.554c-3.053,11.202-8.558,21.495-12.837,32.238c-5.855,13.938-9.576,28.618-13.504,43.174
		c-7.424,28.752-14.322,57.645-21.07,86.572c-0.951,1.368,1.426,2.861,1.777,1.051c5.864-24.439,11.519-48.929,17.7-73.293
		c3.962-15.056,7.624-30.228,12.562-45c4.479-13.621,11.31-26.316,16.048-39.829c7.691-25.524,5.463-54.042-6.531-77.898
		c-4.12-8.441-8.725-16.674-13.763-24.59C565.161,96.094,564.469,96.078,564.127,96.069 M286.402,315.273
		c0.467,2.986,1.86,5.697,3.253,8.349c4.321,8.074,8.867,16.015,13.488,23.922c7.949,13.679,15.006,27.843,22.596,41.714
		c13.729,25.932,29.002,51.273,48.345,73.452c5.872,6.081,11.602,12.537,19.009,16.807c6.456,3.645,13.204,6.856,20.327,8.95
		c2.886,0.859,5.905,1.376,8.925,1.068c0.567-1.91-0.584-3.578-1.693-4.988c-11.277-13.179-24.781-24.531-34.023-39.37
		c-10.226-16.665-17.992-34.766-29.169-50.856c-8.917-13.095-19.543-24.906-29.778-36.959
		c-10.927-12.42-21.904-24.806-33.648-36.467C291.715,318.777,289.621,315.982,286.402,315.273z"/>
	<path fill="#9A9A9A" stroke="#9A9A9A" stroke-width="0.8341" d="M564.127,96.069c0.342,0.008,1.034,0.025,1.385,0.025
		c5.038,7.916,9.642,16.148,13.763,24.59c11.995,23.856,14.222,52.374,6.531,77.898c-4.738,13.513-11.569,26.208-16.048,39.829
		c-4.938,14.772-8.6,29.945-12.562,45c-6.181,24.364-11.836,48.854-17.7,73.293c-0.35,1.81-2.728,0.317-1.777-1.051
		c6.748-28.927,13.646-57.82,21.07-86.572c3.929-14.555,7.649-29.236,13.504-43.174c4.279-10.743,9.784-21.036,12.837-32.238
		c3.954-15.848,4.254-32.605,0.667-48.554c-3.32-15.623-11.102-29.794-19.21-43.382C565.603,99.931,564.152,98.221,564.127,96.069z"
		/>
	<path fill="#9B9B9B" stroke="#9B9B9B" stroke-width="0.8341" d="M654.578,122.928c1.485-2.919,2.711-5.981,4.588-8.683
		c0.375,0.225,1.109,0.676,1.485,0.901c-5.347,11.402-11.219,22.571-16.757,33.89c-27.401,55.352-55.193,110.511-81.334,166.472
		c-6.139,13.663-12.804,27.234-16.582,41.789c-3.211,14.539-8.85,28.368-13.254,42.556c-11.302,34.657-22.271,69.44-34.14,103.905
		c0.484-4.429,2.369-8.508,3.67-12.72c7.257-22.738,14.397-45.509,21.687-68.23c0.5-1.76,0.734-3.587,0.926-5.397
		c4.83-14.764,9.551-29.553,14.614-44.241c3.044-8.691,4.337-17.883,7.59-26.516c5.155-14.121,11.694-27.684,17.975-41.33
		C594.013,244.099,624.575,183.643,654.578,122.928z"/>
	<path fill="#D9D9D9" stroke="#D9D9D9" stroke-width="0.8341" d="M876.568,201.609c5.63-1.927,11.352-3.57,17.033-5.355
		c-8.7,13.362-18.05,26.308-26.675,39.72c-0.609,0.851-1.285,1.643-1.944,2.452c-7.09-4.504-12.403-12.603-11.961-21.211
		c0.25-3.103,0.826-6.381,2.769-8.908c2.077-2.16,5.163-2.794,7.916-3.703C868.085,204.112,872.414,203.127,876.568,201.609z"/>
	<path fill="#A4A4A4" stroke="#A4A4A4" stroke-width="0.8341" d="M851.344,210.518c2.185-3.403,5.238-6.389,9.392-7.065
		c0.976,0.392,1.969,0.776,2.969,1.151c-2.753,0.909-5.839,1.543-7.916,3.703c-1.943,2.527-2.519,5.805-2.769,8.908
		c-0.442,8.608,4.871,16.707,11.961,21.211c0.659-0.809,1.335-1.601,1.944-2.452c0.217,0.5,0.642,1.501,0.859,2.002
		c-0.292,0.701-0.567,1.401-0.809,2.119c9.826,7.507,20.744,13.504,30.286,21.395c8.708,7.115,17.858,13.754,25.824,21.729
		c3.386,3.612,7.082,7.64,7.49,12.837c0.634,5.772-2.711,10.994-2.861,16.674c0.801,5.956,8.983,6.356,10.56,11.953
		c2.878,8.55-0.033,17.483-3.078,25.532c-4.237,11.411-8.666,22.755-13.729,33.823c-5.714,12.762-12.453,25.273-21.87,35.708
		c-7.782,8.716-17.274,15.623-26.483,22.721c-6.239,4.821-12.67,9.392-19.151,13.871c-15.356,10.41-31.029,20.344-46.468,30.62
		c-5.297,3.286-10.376,6.931-15.706,10.168c-7.24,4.646-15.081,8.516-21.362,14.497c-4.98,4.738-7.807,11.119-11.719,16.665
		c-5.33,7.474-12.97,12.82-20.452,17.933c-5.422,3.587-10.927,7.073-16.816,9.834c-4.212,1.885-8.158,5.105-13.054,4.538
		c-13.404-0.45-26.783,0.3-40.171,0.717c1.176-0.759,2.361-1.518,3.512-2.336c12.22-0.392,24.456-0.642,36.684-0.4
		c3.854,0.425,7.007-2.002,10.293-3.562c11.461-5.455,22.104-12.578,31.821-20.719c6.381-5.313,9.659-13.137,14.505-19.685
		c7.273-9.851,18.918-14.622,28.768-21.311c24.848-16.574,50.422-32.088,74.469-49.83c10.735-8.333,22.087-16.14,30.954-26.558
		c6.823-7.766,12.095-16.732,16.624-25.974c6.231-12.795,11.577-25.991,16.532-39.32c2.961-7.982,6.381-16.574,4.179-25.198
		c-1.251-5.522-8.408-6.214-10.46-11.244c-1.418-3.445,0.158-7.107,1.051-10.468c1.41-4.329,2.227-9.4-0.367-13.463
		c-4.362-6.881-10.943-11.919-17.116-17.083c-8.274-6.481-16.198-13.438-24.957-19.268c-7.749-5.28-15.79-10.176-23.03-16.157
		c-4.196-3.47-7.832-7.832-9.542-13.062c-1.251-3.437-1.101-7.132-1.285-10.718c-16.032,19.902-31.471,40.296-47.286,60.381
		c-22.179,28.443-44.366,56.878-66.52,85.338c-19.426,24.773-38.528,49.796-58.346,74.261
		c-12.954,16.365-26.683,32.313-36.993,50.555c-3.462,5.939-5.73,12.453-7.682,19.018c-2.502,8.425-5.88,16.557-8.475,24.948
		c-3.253,10.268-6.606,20.511-9.584,30.854c15.548,0.45,31.112-0.025,46.635-0.834c0.526,0.676,1.076,1.351,1.635,2.027
		c-19.176,1.143-38.419,1.184-57.62,0.701c-20.886-1.068-42.206-3.044-61.799-10.843c9,0.918,17.55,4.254,26.533,5.197
		c8.925,1.335,17.875,2.527,26.883,3.053c5.155,0.242,10.318,1.001,15.481,0.5c4.971-15.556,9.467-31.279,15.097-46.618
		c3.453-9.342,5.505-19.26,10.451-28.001c9.492-17.116,22.062-32.222,34.224-47.469c21.328-26.299,41.922-53.174,62.792-79.841
		C774.606,308.943,813.058,259.797,851.344,210.518z"/>
	<path fill="#FFFFFF" stroke="#FFFFFF" stroke-width="0.8341" d="M803.566,275.336c15.815-20.085,31.254-40.479,47.286-60.381
		c0.184,3.587,0.033,7.282,1.285,10.718c1.71,5.23,5.347,9.592,9.542,13.062c7.24,5.981,15.281,10.877,23.03,16.157
		c8.758,5.83,16.682,12.787,24.957,19.268c6.172,5.163,12.754,10.201,17.116,17.083c2.594,4.062,1.777,9.134,0.367,13.463
		c-0.893,3.361-2.469,7.023-1.051,10.468c2.052,5.03,9.208,5.722,10.46,11.244c2.202,8.625-1.218,17.216-4.179,25.198
		c-4.955,13.329-10.301,26.525-16.532,39.32c-4.529,9.242-9.801,18.209-16.624,25.974c-8.867,10.418-20.219,18.225-30.954,26.558
		c-24.047,17.741-49.621,33.256-74.469,49.83c-9.851,6.69-21.495,11.461-28.768,21.311c-4.846,6.548-8.124,14.372-14.505,19.685
		c-9.717,8.141-20.361,15.264-31.821,20.719c-3.286,1.56-6.439,3.987-10.293,3.562c-12.228-0.242-24.464,0.008-36.684,0.4
		c4.863-4.354,9.617-8.858,14.83-12.804c11.394-8.174,21.403-18.058,32.288-26.867c9.375-7.949,19.702-14.73,30.67-20.277
		c11.644-6.498,23.989-11.744,35.233-18.959c4.571-3.086,9.15-6.773,11.269-12.036c2.16-5.388,5.58-10.143,7.999-15.406
		c3.211-6.923,7.574-13.321,12.97-18.717c9.943-10.093,20.744-19.293,31.221-28.81c4.346-4.304,9.259-8.141,12.804-13.171
		c-5.805,1.71-10.71,5.405-15.906,8.366c-22.604,14.197-44.867,28.935-66.787,44.166c-7.432,5.313-14.922,10.577-21.929,16.457
		c-6.973,5.789-13.029,12.612-18.617,19.718c-8.558,11.994-14.088,25.941-23.447,37.402c-3.587,4.462-8.408,8.174-14.13,9.267
		c-9.459,1.818-19.043-0.142-28.543-0.284c-3.395,0.083-7.457-0.042-9.893,2.761c-2.978,3.345-2.953,8.133-2.903,12.353
		c0.042,5.972,1.627,11.786,3.745,17.341c-15.523,0.809-31.087,1.285-46.635,0.834c2.978-10.343,6.331-20.586,9.584-30.854
		c2.594-8.391,5.972-16.524,8.475-24.948c1.952-6.564,4.221-13.079,7.682-19.018c10.31-18.242,24.039-34.19,36.993-50.555
		c19.818-24.464,38.92-49.488,58.346-74.261C759.2,332.214,781.387,303.779,803.566,275.336z"/>
	<path fill="#999999" stroke="#999999" stroke-width="0.8341" d="M643.617,241.213c0.592,0.2,1.193,0.409,1.802,0.609
		c-8.274,42.573-16.382,85.179-24.523,127.777c-3.07,19.101-7.482,38.077-8.516,57.453c-0.425,4.346,0.742,8.892-0.884,13.07
		c-1.877-5.338-0.726-11.069-0.934-16.59c0.742-9.667,2.294-19.243,3.887-28.802c6.931-40.338,15.072-80.458,22.696-120.671
		C639.388,263.125,640.99,252.048,643.617,241.213z"/>
	<path fill="#D9D9D9" stroke="#D9D9D9" stroke-width="0.8341" d="M351.153,274.986c9.559-2.703,19.602-2.419,29.436-2.194
		c19.852,1.076,39.745,2.644,59.28,6.481c12.195,2.244,24.156,6.306,34.707,12.887c11.602,7.207,21.654,16.732,30.186,27.359
		c8.266,10.668,12.695,23.68,16.007,36.609c4.079,14.931,2.194,30.545,1.952,45.784c0.334,5.197,0.317,10.543,2.144,15.498
		c-0.192,1.81-0.425,3.637-0.926,5.397c-7.29,22.721-14.43,45.492-21.687,68.23c-1.301,4.212-3.186,8.291-3.67,12.72
		c-0.067,0.242-0.2,0.734-0.267,0.976c-0.4-0.175-1.209-0.534-1.618-0.709c-1.935,7.757-4.663,15.298-7.198,22.88
		c-1.601-0.234-3.011-1.034-4.371-1.852c-1.301-2.786-4.579-3.703-6.773-5.614c-5.397-4.104-11.602-9.1-11.969-16.44
		c-0.559-8.558,1.543-18.392-4.379-25.599c-8.233-9.2-19.068-15.448-28.668-23.055c-1.018-0.742-1.626-1.835-2.077-2.978
		c7.732,1.46,14.889,4.963,22.096,7.999c6.906,3.245,14.18,5.947,20.394,10.451c3.445,2.436,2.477,7.24,4.446,10.577
		c2.469,4.329,5.739,8.141,8.658,12.178c2.986,3.77,5.605,7.866,9.025,11.286c0.384-1.134,0.342-2.319-0.15-3.403
		c-4.913-12.061-10.134-24.373-11.019-37.518c-0.892-12.62,9.934-22.371,9.759-34.857c-0.867-9.918-6.039-18.759-11.219-27.017
		c-15.781-23.447-35.792-43.716-57.07-62.183c-10.893-9.551-23.455-16.866-35.975-24.056c-9.3-5.255-17.925-11.586-26.983-17.241
		c-5.905-4.02-12.228-7.632-17.166-12.87c-1.126-1.335-2.594-3.086-1.868-4.946C345.507,277.096,348.434,275.778,351.153,274.986z"
		/>
	<path fill="#D9D9D9" stroke="#D9D9D9" stroke-width="0.8341" d="M286.402,315.273c3.22,0.709,5.313,3.503,7.632,5.622
		c11.744,11.661,22.721,24.047,33.648,36.467c10.234,12.053,20.861,23.864,29.778,36.959c11.177,16.09,18.943,34.19,29.169,50.856
		c9.242,14.839,22.746,26.191,34.023,39.37c1.109,1.41,2.26,3.078,1.693,4.988c-3.019,0.309-6.039-0.209-8.925-1.068
		c-7.123-2.094-13.871-5.305-20.327-8.95c-7.407-4.271-13.137-10.727-19.009-16.807c-19.343-22.179-34.616-47.519-48.345-73.452
		c-7.59-13.871-14.647-28.034-22.596-41.714c-4.621-7.907-9.167-15.848-13.488-23.922
		C288.262,320.97,286.869,318.26,286.402,315.273z"/>
	<path fill="#D9D9D9" stroke="#D9D9D9" stroke-width="0.8341" d="M845.105,400.294c5.196-2.961,10.101-6.656,15.906-8.366
		c-3.545,5.03-8.458,8.867-12.804,13.171c-10.476,9.517-21.278,18.717-31.221,28.81c-5.397,5.397-9.759,11.794-12.97,18.717
		c-2.419,5.263-5.839,10.018-7.999,15.406c-2.119,5.263-6.698,8.95-11.269,12.036c-11.244,7.215-23.589,12.462-35.233,18.959
		c-10.969,5.547-21.295,12.328-30.67,20.277c-10.885,8.808-20.894,18.692-32.288,26.867c-5.213,3.945-9.968,8.45-14.83,12.804
		c-1.151,0.817-2.336,1.576-3.512,2.336c-1.335,0.083-2.661,0.125-3.979,0.192c-0.559-0.676-1.109-1.351-1.635-2.027
		c-2.119-5.555-3.703-11.369-3.745-17.341c-0.05-4.221-0.075-9.008,2.903-12.353c2.436-2.803,6.498-2.677,9.893-2.761
		c9.5,0.142,19.084,2.102,28.543,0.284c5.722-1.093,10.543-4.804,14.13-9.267c9.359-11.461,14.889-25.407,23.447-37.402
		c5.589-7.107,11.644-13.93,18.617-19.718c7.006-5.88,14.497-11.144,21.929-16.457C800.238,429.23,822.501,414.491,845.105,400.294z
		"/>
	<path fill="#D9D9D9" stroke="#D9D9D9" stroke-width="0.8341" d="M610.111,435.827c0.092-4.104-0.083-8.216,0.45-12.295
		c0.208,5.522-0.943,11.252,0.934,16.59c1.351,8.516,1.385,17.199,0.592,25.774c-0.667,5.505-1.26,11.202-3.854,16.198
		c-3.687,7.098-8.967,13.171-13.938,19.376c-4.496,5.63-9.417,11.102-12.195,17.85c-2.152,4.763-2.711,10.001-3.286,15.139
		c-0.893,7.824-4.496,14.914-7.465,22.096c-8.983-0.943-17.533-4.279-26.533-5.197c-0.893-0.242-1.793-0.475-2.677-0.692
		c0.1-0.392,0.309-1.185,0.409-1.576c3.62-7.248,7.373-14.43,11.01-21.67c13.362-25.707,26.108-51.765,40.763-76.78
		c3.044-4.921,5.814-10.151,9.968-14.247C605.774,434.543,608.151,435.669,610.111,435.827z"/>
	<path fill="#A4A3A4" stroke="#A4A3A4" stroke-width="0.8341" d="M349.744,464.713c14.238,7.332,28.819,13.98,43.357,20.686
		c5.964,2.828,12.462,4.154,18.634,6.423c25.324,9.075,49.079,21.829,73.393,33.231c1.36,0.817,2.769,1.618,4.371,1.852
		c2.536-7.582,5.263-15.122,7.198-22.88c0.409,0.175,1.218,0.534,1.618,0.709c-2.119,7.749-5.33,15.164-7.265,22.955
		c11.477,5.355,23.105,10.426,34.891,15.072c5.48,2.244,11.169,3.97,16.607,6.331c-0.1,0.392-0.309,1.184-0.409,1.576
		c-9.242-2.361-17.958-6.373-26.808-9.859c-17.775-7.457-35.183-15.748-52.566-24.081c-20.277-9.792-40.588-19.902-62.283-26.216
		c-8.566-2.661-16.374-7.182-24.631-10.585c-8.525-4.204-17.041-8.424-25.682-12.387c-0.742-0.467-1.485-0.926-2.227-1.368
		C348.534,465.68,349.135,465.188,349.744,464.713z"/>
	<path fill="#777671" stroke="#777671" stroke-width="0.8341" d="M333.921,494.741c13.121-7.057,27.609-11.002,41.931-14.814
		c8.258,3.403,16.065,7.924,24.631,10.585c21.695,6.314,42.006,16.424,62.283,26.216c17.383,8.333,34.791,16.624,52.566,24.081
		c8.85,3.487,17.566,7.499,26.808,9.859c0.884,0.217,1.785,0.45,2.677,0.692c19.593,7.799,40.913,9.776,61.799,10.843
		c19.201,0.484,38.444,0.442,57.62-0.701c1.318-0.067,2.644-0.108,3.979-0.192c13.387-0.417,26.767-1.168,40.171-0.717
		c4.896,0.567,8.842-2.652,13.054-4.538c5.889-2.761,11.394-6.247,16.816-9.834c7.482-5.113,15.122-10.46,20.452-17.933
		c3.912-5.547,6.74-11.928,11.719-16.665c6.281-5.981,14.121-9.851,21.362-14.497c5.33-3.236,10.41-6.881,15.706-10.168
		c7.432,2.169,14.797,4.529,22.137,6.982c8.45,3.403,16.907,6.915,24.573,11.894c4.763,3.345,9.117,7.44,11.686,12.745
		c1.118,4.93-0.25,10.159-3.795,13.78c-8.108,8.716-19.702,12.737-30.47,17.066c-25.082,8.116-51.106,12.879-77.197,16.357
		c-30.462,3.987-61.124,6.323-91.81,7.49c-45.551,1.585-91.177,0.809-136.652-2.202c-38.136-2.502-76.213-6.698-113.773-13.863
		c-10.593-2.01-21.12-4.396-31.554-7.098c-13.663-3.662-27.275-7.791-40.062-13.913c-7.557-3.662-15.014-8.108-20.311-14.772
		c-3.253-4.905-3.203-11.311,0.15-16.157C324.22,500.955,328.849,497.435,333.921,494.741z"/>
	<path fill="#5BD4FF" stroke="#5BD4FF" stroke-width="0.8341" d="M55.261,498.519c85.721,38.619,171.51,77.105,257.248,115.683
		c10.485,4.554,20.753,9.617,31.363,13.855c17.65,8.475,35.7,16.165,53.55,24.231c0.601,6.623-0.259,13.296,0.384,19.91
		c0.092,0.576,0.267,1.727,0.359,2.302c0.534,8.199-0.192,16.44,0.609,24.623c0.434,4.02,0.509,8.066,0.3,12.111
		c-0.359,3.128-0.525,6.289-0.275,9.442c0.417,5.063-0.242,10.193,0.817,15.206c0.058,0.517,0.184,1.551,0.242,2.069
		c-0.551,7.64-0.3,15.373,0.601,22.98c0.25,2.961,0.392,5.939,0.392,8.925c0.05,10.493,0.801,20.978,0.692,31.471
		c-0.284,2.844-0.467,5.722-0.259,8.591c0.325,4.796-0.05,9.642,0.842,14.397c0.551,6.047,0.292,12.12,0.601,18.175
		c0.2,7.682,0.642,15.364,0.475,23.055c-0.667,5.071,0.058,10.159-0.025,15.247c-0.033,2.319,0.242,4.629,0.617,6.923
		c0.909,23.547,1.401,47.111,2.019,70.666c4.087,152.642,8.057,305.284,12.22,457.91c0.142,8.324,0.234,16.657,0.676,24.982
		c0.334,9.209,0.175,18.434,0.709,27.642c0.492,11.628,0.3,23.28,0.951,34.908c0.334,9.208,0.158,18.434,0.717,27.642
		c0.5,12.478,0.309,24.973,1.034,37.452c0.175,10.568,0.325,21.153,0.851,31.721c0.033,17.883,1.335,35.75,1.051,53.642
		c-101.144-74.937-202.122-150.115-303.216-225.135c-14.764-11.085-29.769-21.879-44.391-33.139
		c-1.301-42.723-2.052-85.463-3.145-128.194c-5.739-243.277-11.469-486.553-17.216-729.821c-0.325-10.435-0.409-20.869-0.792-31.304
		v-8.168H55.261z"/>
	<path fill="#95E3FF" stroke="#95E3FF" stroke-width="0.8341" d="M1148.337,563.029c0.526,0.075,1.585,0.217,2.11,0.292v5.956
		c-2.152,126.918-4.012,253.845-6.064,380.763c-2.953,185.69-5.772,371.379-8.825,557.069c-4.12,1.134-8.358,1.76-12.52,2.703
		c-232.767,48.27-465.508,96.673-698.283,144.843l-0.734-0.375c0.284-17.892-1.018-35.758-1.051-53.642
		c-0.526-10.568-0.676-21.153-0.851-31.721c-0.726-12.478-0.534-24.973-1.034-37.452c-0.559-9.208-0.384-18.434-0.717-27.642
		c-0.651-11.628-0.459-23.28-0.951-34.908c-0.534-9.208-0.375-18.434-0.709-27.642c-0.442-8.324-0.534-16.657-0.676-24.982
		c-4.162-152.625-8.133-305.268-12.22-457.91c-0.617-23.555-1.109-47.119-2.019-70.666c0.392-7.382,0.234-14.83-0.592-22.171
		c0.167-7.691-0.275-15.373-0.475-23.055c-0.309-6.056-0.05-12.128-0.601-18.175c0.367-7.649,0.209-15.364-0.584-22.988
		c0.108-10.493-0.642-20.978-0.692-31.471c0-2.986-0.142-5.964-0.392-8.925c0.359-7.649,0.234-15.373-0.601-22.98
		c-0.058-0.517-0.184-1.551-0.242-2.069c0.509-8.208,0.284-16.482-0.542-24.648c0.209-4.045,0.133-8.091-0.3-12.111
		c-0.317-8.199,0.242-16.457-0.609-24.623c-0.092-0.576-0.267-1.727-0.359-2.302c-0.15-6.69-0.133-13.379-0.058-20.06
		c40.971-5.046,81.993-9.701,122.989-14.589C626.101,625.12,731.474,612.7,836.839,600.28c6.081-0.55,12.103-1.793,18.234-1.802
		c0.909-0.008,1.827-0.017,2.753-0.033c4.296-0.342,8.566-1.051,12.795-1.927c7.54,0.1,14.939-1.576,22.438-2.194
		c37.994-4.621,76.021-8.9,114.006-13.554c42.498-5.188,85.038-10.018,127.535-15.181
		C1139.237,565.139,1144.025,565.014,1148.337,563.029z"/>
	<path opacity="0.89" fill="#81C9E4" stroke="#81C9E4" stroke-width="0.8341" enable-background="new    " d="M855.815,597.419
		c4.913-0.409,9.859-1.835,14.805-0.901c-4.229,0.876-8.5,1.585-12.795,1.927C857.325,598.187,856.315,597.678,855.815,597.419z"/>
	
		<radialGradient id="SVGID_1_" cx="602.0625" cy="1155.9608" r="558.4534" gradientTransform="matrix(1 0 0 -1 0 1710)" gradientUnits="userSpaceOnUse">
		<stop  offset="0" style="stop-color:#58D2FF"/>
		<stop  offset="1" style="stop-color:#92E2FF"/>
	</radialGradient>
	<path fill="url(#SVGID_1_)" stroke="#92E2FF" stroke-width="0.8341" d="M1112.154,549.808
		c-32.272-11.702-64.543-23.388-96.848-34.974c-12.812-4.729-25.674-9.35-38.544-13.921c-10.977-4.079-22.021-7.999-33.039-11.978
		c-29.895-10.935-59.939-21.462-89.759-32.597c-15.356,10.41-31.029,20.344-46.468,30.62c7.432,2.169,14.797,4.529,22.137,6.981
		c8.45,3.403,16.907,6.915,24.573,11.894c4.763,3.345,9.117,7.44,11.686,12.745c1.118,4.93-0.25,10.159-3.795,13.78
		c-8.108,8.716-19.702,12.737-30.47,17.066c-25.082,8.116-51.106,12.879-77.197,16.357c-30.462,3.987-61.124,6.322-91.81,7.49
		c-45.551,1.585-91.177,0.809-136.652-2.202c-38.136-2.502-76.213-6.698-113.773-13.863c-10.593-2.01-21.12-4.396-31.554-7.098
		c-13.663-3.662-27.275-7.791-40.062-13.913c-7.557-3.662-15.014-8.108-20.311-14.772c-3.253-4.905-3.203-11.31,0.15-16.157
		c3.804-4.312,8.433-7.832,13.504-10.527c13.121-7.057,27.609-11.002,41.931-14.814c-8.525-4.204-17.041-8.424-25.682-12.386
		c-39.62,4.279-79.29,8.041-118.936,12.12c-58.479,5.914-116.967,11.769-175.447,17.725c4.229,2.519,8.858,4.287,13.371,6.222
		c14.096,6.606,28.318,12.929,42.531,19.276c22.196,10.118,44.425,20.194,66.704,30.136c20.327,9.309,40.73,18.459,61.115,27.659
		c22.704,10.226,45.317,20.661,68.113,30.687c11.961,5.814,24.323,10.793,36.25,16.691c17.258,7.415,34.282,15.389,51.431,23.055
		c2.461,1.31,5.221,0.2,7.816,0.025c102.387-12.061,204.791-24.022,307.169-36.125c43.732-5.013,87.431-10.31,131.155-15.356
		c4.529-0.509,9.05-1.401,13.629-1.176c0.909-0.008,1.827-0.017,2.753-0.033c-0.5-0.259-1.51-0.767-2.01-1.026
		c4.913-0.409,9.859-1.835,14.805-0.901c7.54,0.1,14.939-1.576,22.438-2.194c37.994-4.621,76.021-8.9,114.006-13.554
		c42.498-5.188,85.038-10.018,127.535-15.181c4.638-0.45,9.426-0.576,13.738-2.561
		C1136.393,558.316,1124.207,554.221,1112.154,549.808z"/>
</g>
</svg>
